HIERARCHY
ROOT Hips
{
	OFFSET 0.000000 0.000000 0.000000
	CHANNELS 6 Xposition Yposition Zposition Zrotation Yrotation Xrotation 
	JOINT LHipJoint
	{
		OFFSET 0.000000 0.000000 0.000000
		CHANNELS 3 Zrotation Yrotation Xrotation
		JOINT LeftUpLeg
		{
			OFFSET 1.363060 -1.794630 0.839290
			CHANNELS 3 Zrotation Yrotation Xrotation
			JOINT LeftLeg
			{
				OFFSET 2.448110 -6.726130 0.000000
				CHANNELS 3 Zrotation Yrotation Xrotation
				JOINT LeftFoot
				{
					OFFSET 2.562200 -7.039590 0.000000
					CHANNELS 3 Zrotation Yrotation Xrotation
					JOINT LeftToeBase
					{
						OFFSET 0.157640 -0.433110 2.322550
						CHANNELS 3 Zrotation Yrotation Xrotation
						End Site
						{
							OFFSET 0.000000 0.000000 0.000000
						}
					}
				}
			}
		}
	}
	JOINT RHipJoint
	{
		OFFSET 0.000000 0.000000 0.000000
		CHANNELS 3 Zrotation Yrotation Xrotation
		JOINT RightUpLeg
		{
			OFFSET -1.305520 -1.794630 0.839290
			CHANNELS 3 Zrotation Yrotation Xrotation
			JOINT RightLeg
			{
				OFFSET -2.542530 -6.985550 0.000000
				CHANNELS 3 Zrotation Yrotation Xrotation
				JOINT RightFoot
				{
					OFFSET -2.568260 -7.056230 0.000000
					CHANNELS 3 Zrotation Yrotation Xrotation
					JOINT RightToeBase
					{
						OFFSET -0.164730 -0.452590 2.363150
						CHANNELS 3 Zrotation Yrotation Xrotation
						End Site
						{
							OFFSET 0.000000 0.000000 0.000000
						}
					}
				}
			}
		}
	}
}
MOTION
Frames: 27
Frame Time: 0.008333
6.617685 16.925763 1.324149 177.584812 -81.836959 -178.929887 -10.826512 1.158848 1.415893 -9.567056 13.218934 -24.881455 -2.050336 -0.087316 9.741084 1.056268 8.168591 4.455021 1.864100 0.000000 -30.514800 9.637472 -3.844787 -1.095004 -1.390393 -10.095660 15.357500 0.926700 -1.951492 19.547438 0.141618 2.701417 7.001977 0.448200 0.000001 -80.473800
6.431346 16.936861 1.344582 176.069572 -81.865386 -177.670943 -10.871798 1.255895 1.344795 -9.733719 13.543876 -24.613357 -2.025277 0.010872 10.897955 1.042380 8.079706 4.563576 1.838100 0.000000 -29.837400 9.766665 -3.938690 -1.100814 -2.269405 -10.507849 14.653859 0.699836 -2.165691 21.732650 0.129940 3.247000 9.123415 0.735100 -0.000000 -82.908999
6.248019 16.949332 1.364334 174.345810 -81.940524 -176.195548 -10.905969 1.341618 1.279819 -9.919097 13.780922 -24.273668 -2.006538 0.090138 11.969415 1.029147 7.981426 4.454260 1.782400 -0.000000 -29.027100 9.911362 -4.015251 -1.119756 -3.157719 -10.994435 13.805226 0.446152 -2.366856 24.073198 0.058103 3.566879 11.456936 1.021200 -0.000000 -84.981200
6.068173 16.962627 1.383453 172.437939 -82.060273 -174.524878 -10.926947 1.413801 1.221884 -10.117755 13.907526 -23.848247 -1.992519 0.149755 12.938617 1.019075 7.897649 4.133149 1.704500 0.000000 -28.124100 10.071100 -4.067515 -1.152886 -4.032409 -11.539513 12.824160 0.174389 -2.548424 26.552712 -0.080813 3.585374 13.983157 1.259700 -0.000001 -86.509200
5.892189 16.976141 1.401965 170.361652 -82.220353 -172.673164 -10.932323 1.470949 1.170475 -10.327927 13.913710 -23.328694 -1.981553 0.189819 13.793252 1.014820 7.851495 3.623595 1.612700 0.000000 -27.174800 10.245598 -4.089086 -1.199824 -4.873745 -12.123161 11.725644 -0.101816 -2.704897 29.150388 -0.288232 3.240895 16.656411 1.388200 0.000000 -87.262400
5.720261 16.989364 1.420065 168.178369 -82.410658 -170.700797 -10.919907 1.513261 1.124371 -10.543877 13.803455 -22.714137 -1.971993 0.211802 14.527056 1.018804 7.859485 2.959800 1.513200 0.000000 -26.214000 10.432603 -4.074569 -1.258542 -5.654619 -12.715306 10.530356 -0.365463 -2.833004 31.839230 -0.559131 2.484449 19.394864 1.330300 0.000000 -86.995600
5.552240 17.001865 1.437932 165.980773 -82.618426 -168.699942 -10.888996 1.543052 1.081988 -10.756885 13.593744 -22.010535 -1.962629 0.218658 15.140994 1.032736 7.928958 2.181970 1.409500 0.000000 -25.281200 10.627296 -4.021445 -1.327323 -6.349506 -13.288863 9.264801 -0.599287 -2.933186 34.583185 -0.880451 1.296303 22.076753 1.012000 -0.000001 -85.548001
5.388063 17.013502 1.455474 163.775795 -82.824034 -166.676072 -10.837886 1.562452 1.042670 -10.972647 13.295807 -21.219653 -1.952371 0.211708 15.621787 1.059467 8.081338 1.343000 1.309200 0.000000 -24.399200 10.828323 -3.932611 -1.402383 -6.955526 -13.817945 7.928822 -0.790989 -3.012620 37.370593 -1.234673 -0.310182 24.559543 0.383100 -0.000000 -82.797899
5.227384 17.024133 1.473167 161.748342 -83.011283 -164.820000 -10.772568 1.577069 1.004366 -11.170433 12.948584 -20.359565 -1.940867 0.197104 15.986564 1.097899 8.299219 0.480396 1.209700 0.000000 -23.603999 11.023092 -3.812668 -1.483965 -7.443584 -14.281553 6.559785 -0.936217 -3.079897 40.144658 -1.597752 -2.281434 26.672883 -0.563500 0.000001 -79.004400
5.069812 17.033939 1.491169 159.984308 -83.162719 -163.218295 -10.699422 1.590926 0.966085 -11.344277 12.580880 -19.443176 -1.927945 0.178433 16.238487 1.147329 8.577575 -0.364998 1.113399 0.000000 -22.915100 11.203259 -3.671290 -1.569617 -7.806986 -14.662766 5.165887 -1.040811 -3.146545 42.873138 -1.948500 -4.520200 28.278963 -1.773300 -0.000000 -74.513900
4.914893 17.043199 1.509627 158.566641 -83.268913 -161.956177 -10.627096 1.607335 0.926611 -11.486186 12.223841 -18.487637 -1.913823 0.159298 16.389097 1.205049 8.898623 -1.163904 1.020300 -0.000000 -22.345100 11.360148 -3.519400 -1.657213 -8.039781 -14.953433 3.757954 -1.117126 -3.221840 45.517228 -2.269000 -6.886030 29.280815 -3.131600 -0.000000 -69.777500
4.762231 17.052463 1.528589 157.555179 -83.317240 -161.091790 -10.563238 1.628231 0.884819 -11.591262 11.902981 -17.505453 -1.898666 0.141299 16.438127 1.268601 9.251427 -1.890101 0.933300 -0.000000 -21.903500 11.488504 -3.366872 -1.740792 -8.135669 -15.133183 2.335981 -1.179802 -3.310898 48.046474 -2.548393 -9.229212 29.646379 -4.496200 0.000000 -65.247200
4.611538 17.062003 1.548302 157.015101 -83.315777 -160.695021 -10.517899 1.655255 0.839100 -11.644136 11.649445 -16.519943 -1.883243 0.127574 16.414251 1.331957 9.595390 -2.542133 0.848700 0.000000 -21.580200 11.581792 -3.221175 -1.819811 -8.088501 -15.214693 0.912851 -1.241435 -3.413379 50.427321 -2.777881 -11.386741 29.378465 -5.711400 0.000000 -61.162700
4.462429 17.072332 1.568581 156.928377 -83.263315 -160.744353 -10.493676 1.689036 0.789045 -11.645116 11.476322 -15.537960 -1.868340 0.117468 16.316357 1.391995 9.916228 -3.114267 0.768600 0.000000 -21.365200 11.641723 -3.087511 -1.888833 -7.902881 -15.193711 -0.513963 -1.309683 -3.526175 52.639792 -2.954165 -13.234088 28.524604 -6.655699 0.000000 -57.634800
4.314709 17.083667 1.589405 157.267840 -83.169923 -161.214024 -10.492322 1.730001 0.734292 -11.589444 11.394943 -14.570417 -1.855062 0.111108 16.158014 1.444489 10.187520 -3.615780 0.691100 0.000000 -21.240700 11.670233 -2.967964 -1.946576 -7.585269 -15.086523 -1.937097 -1.387020 -3.643347 54.660631 -3.074649 -14.677807 27.147686 -7.246900 -0.000000 -54.642700
4.168194 17.096136 1.610543 157.972941 -83.045967 -162.043084 -10.511809 1.778405 0.674483 -11.477780 11.408021 -13.618445 -1.844597 0.107622 15.943865 1.486538 10.391545 -4.057688 0.615199 0.000000 -21.184800 11.672133 -2.862242 -1.992143 -7.148603 -14.908820 -3.346690 -1.470731 -3.758137 56.467871 -3.138966 -15.672830 25.333004 -7.459001 0.000000 -52.092800
4.022796 17.109668 1.631860 158.981019 -82.906341 -163.167885 -10.548746 1.833776 0.611376 -11.312146 11.509055 -12.690838 -1.837857 0.106170 15.685457 1.516132 10.513872 -4.455418 0.539200 -0.000000 -21.183300 11.652286 -2.768600 -2.025017 -6.605386 -14.683137 -4.737040 -1.554140 -3.863628 58.041801 -3.147868 -16.213193 23.175071 -7.314300 -0.000000 -49.870100
3.878520 17.124059 1.653086 160.205522 -82.763378 -164.505190 -10.597721 1.895393 0.543419 -11.098162 11.688211 -11.770710 -1.835502 0.105319 15.375324 1.532562 10.550602 -4.817770 0.463300 0.000000 -21.217200 11.616916 -2.683305 -2.048078 -5.978811 -14.428880 -6.087555 -1.628155 -3.954625 59.361244 -3.105455 -16.334893 20.793201 -6.881500 0.000000 -47.960000
3.735351 17.138979 1.673967 161.562911 -82.634547 -165.968155 -10.652943 1.961609 0.474291 -10.846831 11.923284 -10.863790 -1.837476 0.103601 15.020569 1.536584 10.505303 -5.154384 0.387800 0.000000 -21.284400 11.571316 -2.603524 -2.062110 -5.288632 -14.173893 -7.400555 -1.683608 -4.027629 60.419402 -3.017044 -16.092388 18.290408 -6.244700 0.000000 -46.161600
3.593258 17.153964 1.694359 163.000291 -82.534018 -167.507645 -10.710729 2.031006 0.402717 -10.563014 12.200463 -9.953514 -1.843381 0.100216 14.616509 1.528656 10.381071 -5.468573 0.313700 0.000000 -21.377100 11.518950 -2.524823 -2.072134 -4.555336 -13.940956 -8.658672 -1.713232 -4.080223 61.204579 -2.893399 -15.574391 15.797043 -5.508301 -0.000000 -44.555300
3.452374 17.168498 1.714128 164.479612 -82.475204 -169.088575 -10.768214 2.101912 0.329420 -10.252544 12.502992 -9.033704 -1.852302 0.094682 14.164682 1.509828 10.184968 -5.760293 0.242800 0.000000 -21.498800 11.462292 -2.443594 -2.082522 -3.795054 -13.753930 -9.857982 -1.713323 -4.111855 61.718619 -2.746840 -14.873770 13.416300 -4.759600 -0.000000 -43.097900
3.312368 17.182200 1.733013 165.949452 -82.470243 -170.652024 -10.821870 2.172760 0.258365 -9.929422 12.807734 -8.108894 -1.863095 0.085902 13.669224 1.482414 9.932853 -6.026056 0.177600 0.000000 -21.659100 11.403874 -2.358096 -2.094643 -3.023726 -13.633531 -11.010992 -1.683563 -4.123527 61.974401 -2.590701 -14.082144 11.228331 -4.063500 -0.000000 -41.791100
3.173174 17.194676 1.750867 167.387135 -82.526202 -172.174664 -10.870381 2.242461 0.191148 -9.601509 13.101219 -7.180600 -1.874674 0.073795 13.134788 1.447962 9.636233 -6.260349 0.120100 -0.000000 -21.864700 11.344601 -2.266642 -2.111112 -2.251894 -13.593262 -12.124116 -1.626920 -4.116931 61.987448 -2.437598 -13.283125 9.284583 -3.459400 -0.000000 -40.676000
3.034810 17.205457 1.767837 168.846622 -82.643382 -173.718362 -10.915380 2.311323 0.124938 -9.260706 13.387275 -6.240039 -1.886100 0.059938 12.566178 1.406230 9.294398 -6.457480 0.071500 -0.000000 -22.123800 11.283667 -2.167737 -2.137228 -1.481425 -13.638976 -13.185967 -1.548190 -4.093793 61.772805 -2.297138 -12.542047 7.597021 -2.960800 -0.000000 -39.730700
2.896741 17.214489 1.783545 170.256086 -82.823989 -175.197469 -10.953804 2.378563 0.066463 -8.929535 13.644564 -5.308928 -1.896804 0.043220 11.973639 1.360348 8.929473 -6.612464 0.033200 0.000000 -22.439601 11.222558 -2.063207 -2.169026 -0.724198 -13.772697 -14.226170 -1.451261 -4.057251 61.357609 -2.174827 -11.895543 6.144934 -2.561300 0.000000 -38.953200
2.758980 17.221534 1.798247 171.683974 -83.060582 -176.689418 -10.987562 2.445153 0.012234 -8.598053 13.883388 -4.380715 -1.906425 0.025528 11.363209 1.309851 8.538611 -6.722791 0.004901 -0.000000 -22.814600 11.160247 -1.953099 -2.209432 0.021277 -13.986659 -15.230994 -1.339781 -4.009051 60.756336 -2.072542 -11.360244 4.887012 -2.245400 0.000000 -38.282601
2.621168 17.226595 1.811978 173.152790 -83.344877 -178.214113 -11.016384 2.511733 -0.037215 -8.268792 14.104013 -3.461059 -1.914880 0.007387 10.742098 1.255836 8.128889 -6.788738 -0.014100 -0.000000 -23.245901 11.096789 -1.838925 -2.256434 0.752231 -14.268548 -16.202681 -1.215611 -3.950880 59.983942 -1.988982 -10.929928 3.773531 -1.993100 0.000000 -37.670301
